<mxfile host="app.diagrams.net" modified="2024-04-09T17:54:54.276Z" agent="Mozilla/5.0 (Windows NT 10.0; Win64; x64) AppleWebKit/537.36 (KHTML, like Gecko) Chrome/120.0.0.0 YaBrowser/24.1.0.0 Safari/537.36" etag="sG8g_A1Pg2s_NWzE_66n" version="24.2.3" type="github">
  <diagram name="Страница — 1" id="CnmKuvs6UtEZ7Qr_FLXM">
    <mxGraphModel dx="2074" dy="1137" grid="1" gridSize="10" guides="1" tooltips="1" connect="1" arrows="1" fold="1" page="1" pageScale="1" pageWidth="827" pageHeight="1169" math="0" shadow="0">
      <root>
        <mxCell id="0" />
        <mxCell id="1" parent="0" />
        <mxCell id="vDeVMjjCBy1Jn1jcH2Mo-37" style="edgeStyle=orthogonalEdgeStyle;rounded=0;orthogonalLoop=1;jettySize=auto;html=1;exitX=0;exitY=0.5;exitDx=0;exitDy=0;entryX=0.5;entryY=0;entryDx=0;entryDy=0;" parent="1" source="vDeVMjjCBy1Jn1jcH2Mo-8" target="vDeVMjjCBy1Jn1jcH2Mo-18" edge="1">
          <mxGeometry relative="1" as="geometry" />
        </mxCell>
        <mxCell id="vDeVMjjCBy1Jn1jcH2Mo-8" value="Внешний сервис" style="rounded=0;whiteSpace=wrap;html=1;" parent="1" vertex="1">
          <mxGeometry x="401" y="320" width="120" height="60" as="geometry" />
        </mxCell>
        <mxCell id="vDeVMjjCBy1Jn1jcH2Mo-18" value="Kafka" style="rounded=0;whiteSpace=wrap;html=1;" parent="1" vertex="1">
          <mxGeometry x="201" y="390" width="120" height="60" as="geometry" />
        </mxCell>
        <mxCell id="vDeVMjjCBy1Jn1jcH2Mo-62" style="edgeStyle=orthogonalEdgeStyle;rounded=0;orthogonalLoop=1;jettySize=auto;html=1;exitX=0.5;exitY=1;exitDx=0;exitDy=0;entryX=0;entryY=0.5;entryDx=0;entryDy=0;" parent="1" source="vDeVMjjCBy1Jn1jcH2Mo-23" target="vDeVMjjCBy1Jn1jcH2Mo-41" edge="1">
          <mxGeometry relative="1" as="geometry" />
        </mxCell>
        <mxCell id="vDeVMjjCBy1Jn1jcH2Mo-23" value="MC Elar" style="rounded=0;whiteSpace=wrap;html=1;" parent="1" vertex="1">
          <mxGeometry x="131" y="540" width="140" height="60" as="geometry" />
        </mxCell>
        <mxCell id="vDeVMjjCBy1Jn1jcH2Mo-47" style="edgeStyle=orthogonalEdgeStyle;rounded=0;orthogonalLoop=1;jettySize=auto;html=1;exitX=0;exitY=0.25;exitDx=0;exitDy=0;entryX=1;entryY=0.25;entryDx=0;entryDy=0;" parent="1" edge="1">
          <mxGeometry relative="1" as="geometry">
            <mxPoint x="423" y="569.58" as="sourcePoint" />
            <mxPoint x="270.9999999999998" y="569.58" as="targetPoint" />
          </mxGeometry>
        </mxCell>
        <mxCell id="vDeVMjjCBy1Jn1jcH2Mo-68" style="edgeStyle=orthogonalEdgeStyle;rounded=0;orthogonalLoop=1;jettySize=auto;html=1;exitX=1;exitY=0.5;exitDx=0;exitDy=0;" parent="1" source="vDeVMjjCBy1Jn1jcH2Mo-27" edge="1">
          <mxGeometry relative="1" as="geometry">
            <mxPoint x="623" y="570.3333333333335" as="targetPoint" />
          </mxGeometry>
        </mxCell>
        <mxCell id="vDeVMjjCBy1Jn1jcH2Mo-27" value="Хранилище Elar" style="rounded=0;whiteSpace=wrap;html=1;" parent="1" vertex="1">
          <mxGeometry x="423" y="540" width="120" height="60" as="geometry" />
        </mxCell>
        <mxCell id="vDeVMjjCBy1Jn1jcH2Mo-28" value="БД, S3" style="shape=cylinder3;whiteSpace=wrap;html=1;boundedLbl=1;backgroundOutline=1;size=15;" parent="1" vertex="1">
          <mxGeometry x="321" y="905" width="60" height="80" as="geometry" />
        </mxCell>
        <mxCell id="vDeVMjjCBy1Jn1jcH2Mo-38" value="Синхронизация" style="text;html=1;align=center;verticalAlign=middle;resizable=0;points=[];autosize=1;strokeColor=none;fillColor=none;" parent="1" vertex="1">
          <mxGeometry x="275" y="326" width="110" height="30" as="geometry" />
        </mxCell>
        <mxCell id="vDeVMjjCBy1Jn1jcH2Mo-40" value="Синхронизация" style="text;html=1;align=center;verticalAlign=middle;resizable=0;points=[];autosize=1;strokeColor=none;fillColor=none;" parent="1" vertex="1">
          <mxGeometry x="231" y="470" width="110" height="30" as="geometry" />
        </mxCell>
        <mxCell id="vDeVMjjCBy1Jn1jcH2Mo-59" style="edgeStyle=orthogonalEdgeStyle;rounded=0;orthogonalLoop=1;jettySize=auto;html=1;exitX=0.5;exitY=1;exitDx=0;exitDy=0;" parent="1" source="vDeVMjjCBy1Jn1jcH2Mo-41" edge="1">
          <mxGeometry relative="1" as="geometry">
            <mxPoint x="350.87931034482745" y="904.9999999999998" as="targetPoint" />
          </mxGeometry>
        </mxCell>
        <mxCell id="vDeVMjjCBy1Jn1jcH2Mo-73" style="edgeStyle=orthogonalEdgeStyle;rounded=0;orthogonalLoop=1;jettySize=auto;html=1;exitX=1;exitY=0.25;exitDx=0;exitDy=0;entryX=0.5;entryY=1;entryDx=0;entryDy=0;" parent="1" source="vDeVMjjCBy1Jn1jcH2Mo-41" target="vDeVMjjCBy1Jn1jcH2Mo-27" edge="1">
          <mxGeometry relative="1" as="geometry" />
        </mxCell>
        <mxCell id="vDeVMjjCBy1Jn1jcH2Mo-41" value="сервис&amp;nbsp;&lt;span style=&quot;background-color: initial;&quot;&gt;outbox&lt;/span&gt;" style="rounded=0;whiteSpace=wrap;html=1;" parent="1" vertex="1">
          <mxGeometry x="239.5" y="760" width="223" height="60" as="geometry" />
        </mxCell>
        <mxCell id="vDeVMjjCBy1Jn1jcH2Mo-44" style="edgeStyle=orthogonalEdgeStyle;rounded=0;orthogonalLoop=1;jettySize=auto;html=1;exitX=0.75;exitY=0;exitDx=0;exitDy=0;entryX=0.296;entryY=1.02;entryDx=0;entryDy=0;entryPerimeter=0;" parent="1" source="vDeVMjjCBy1Jn1jcH2Mo-23" target="vDeVMjjCBy1Jn1jcH2Mo-18" edge="1">
          <mxGeometry relative="1" as="geometry" />
        </mxCell>
        <mxCell id="vDeVMjjCBy1Jn1jcH2Mo-48" value="Получить файлы" style="text;html=1;align=center;verticalAlign=middle;resizable=0;points=[];autosize=1;strokeColor=none;fillColor=none;" parent="1" vertex="1">
          <mxGeometry x="293" y="540" width="120" height="30" as="geometry" />
        </mxCell>
        <mxCell id="vDeVMjjCBy1Jn1jcH2Mo-69" style="edgeStyle=orthogonalEdgeStyle;rounded=0;orthogonalLoop=1;jettySize=auto;html=1;exitX=0.5;exitY=0;exitDx=0;exitDy=0;entryX=1;entryY=0.5;entryDx=0;entryDy=0;" parent="1" source="vDeVMjjCBy1Jn1jcH2Mo-61" target="vDeVMjjCBy1Jn1jcH2Mo-18" edge="1">
          <mxGeometry relative="1" as="geometry" />
        </mxCell>
        <mxCell id="vDeVMjjCBy1Jn1jcH2Mo-72" style="edgeStyle=orthogonalEdgeStyle;rounded=0;orthogonalLoop=1;jettySize=auto;html=1;exitX=0.5;exitY=1;exitDx=0;exitDy=0;entryX=1;entryY=0.75;entryDx=0;entryDy=0;" parent="1" source="vDeVMjjCBy1Jn1jcH2Mo-61" target="vDeVMjjCBy1Jn1jcH2Mo-41" edge="1">
          <mxGeometry relative="1" as="geometry" />
        </mxCell>
        <mxCell id="vDeVMjjCBy1Jn1jcH2Mo-61" value="&lt;font style=&quot;font-size: 8px;&quot;&gt;Сохранились ли ВСЕ файлы в Elar&lt;/font&gt;" style="rhombus;whiteSpace=wrap;html=1;" parent="1" vertex="1">
          <mxGeometry x="623" y="520" width="167" height="100" as="geometry" />
        </mxCell>
        <mxCell id="vDeVMjjCBy1Jn1jcH2Mo-63" value="Сохранение файлов" style="text;html=1;align=center;verticalAlign=middle;resizable=0;points=[];autosize=1;strokeColor=none;fillColor=none;rotation=-90;" parent="1" vertex="1">
          <mxGeometry x="118" y="670" width="140" height="30" as="geometry" />
        </mxCell>
        <mxCell id="vDeVMjjCBy1Jn1jcH2Mo-65" value="&lt;font style=&quot;font-size: 8px;&quot;&gt;Сохранение файлов в базу сервиса&lt;/font&gt;" style="text;html=1;align=center;verticalAlign=middle;resizable=0;points=[];autosize=1;strokeColor=none;fillColor=none;rotation=0;" parent="1" vertex="1">
          <mxGeometry x="196" y="840" width="160" height="30" as="geometry" />
        </mxCell>
        <mxCell id="vDeVMjjCBy1Jn1jcH2Mo-70" value="Да" style="text;html=1;align=center;verticalAlign=middle;resizable=0;points=[];autosize=1;strokeColor=none;fillColor=none;" parent="1" vertex="1">
          <mxGeometry x="663" y="480" width="40" height="30" as="geometry" />
        </mxCell>
        <mxCell id="vDeVMjjCBy1Jn1jcH2Mo-74" value="Нет" style="text;html=1;align=center;verticalAlign=middle;resizable=0;points=[];autosize=1;strokeColor=none;fillColor=none;" parent="1" vertex="1">
          <mxGeometry x="663" y="648" width="40" height="30" as="geometry" />
        </mxCell>
        <mxCell id="vDeVMjjCBy1Jn1jcH2Mo-75" value="ответ в кафку, что все успешно" style="text;html=1;align=center;verticalAlign=middle;resizable=0;points=[];autosize=1;strokeColor=none;fillColor=none;" parent="1" vertex="1">
          <mxGeometry x="390" y="413" width="200" height="30" as="geometry" />
        </mxCell>
        <mxCell id="vDeVMjjCBy1Jn1jcH2Mo-76" value="&lt;font style=&quot;font-size: 9px;&quot;&gt;Сохраняем файлы в Элар&lt;/font&gt;" style="text;html=1;align=center;verticalAlign=middle;resizable=0;points=[];autosize=1;strokeColor=none;fillColor=none;rotation=0;" parent="1" vertex="1">
          <mxGeometry x="353" y="648" width="130" height="30" as="geometry" />
        </mxCell>
        <mxCell id="vDeVMjjCBy1Jn1jcH2Mo-77" value="&lt;font style=&quot;font-size: 8px;&quot;&gt;Кидаем в отложку до следующей попытки сохранения&lt;/font&gt;" style="text;html=1;align=center;verticalAlign=middle;resizable=0;points=[];autosize=1;strokeColor=none;fillColor=none;" parent="1" vertex="1">
          <mxGeometry x="480" y="800" width="230" height="30" as="geometry" />
        </mxCell>
      </root>
    </mxGraphModel>
  </diagram>
</mxfile>
